PathFileType	4	(X/Y/Z)	C:\Users\ebm\Documents\Erivelton\Erivelton\propulsion4.trc
DataRate	CameraRate	NumFrames	NumMarkers	Units	OrigDataRate	OrigDataStartFrame	OrigNumFrames
150.00	150.00	      12	28	mm	150.00	469	      1250
Frame#	Time	IJ			PX			C7			T8			RAC			RAS			RPS			RAI			RPI			RLE			RME			RRS			RUS			R3M			R5M			LAC			LAS			LPS			LAI			LPI			LLE			LME			LRS			LUS			L3M			L5M			RW			LW			V_mid_elbow_r			V_mid_elbow_l			V_mid_wrist_r			V_mid_wrist_l			V_mid_trunk_low			V_mid_trunk_upp			
		X1	Y1	Z1	X2	Y2	Z2	X3	Y3	Z3	X4	Y4	Z4	X5	Y5	Z5	X6	Y6	Z6	X7	Y7	Z7	X8	Y8	Z8	X9	Y9	Z9	X10	Y10	Z10	X11	Y11	Z11	X12	Y12	Z12	X13	Y13	Z13	X14	Y14	Z14	X15	Y15	Z15	X16	Y16	Z16	X17	Y17	Z17	X18	Y18	Z18	X19	Y19	Z19	X20	Y20	Z20	X21	Y21	Z21	X22	Y22	Z22	X23	Y23	Z23	X24	Y24	Z24	X25	Y25	Z25	X26	Y26	Z26	X27	Y27	Z27	X28	Y28	Z28	

469	3.120	-158.36359	1007.93304	-209.46327	-176.05678	829.33771	-209.00253	-269.19760	1120.67944	-216.26889	-381.59180	949.85742	-219.34877	-229.79236	1052.82092	-20.73308	-236.07091	878.07544	42.25874	-272.52444	904.32379	71.50805	-260.87878	807.60944	72.77966	-293.91473	834.70166	100.52625	-333.37277	760.70203	128.25578	-369.87756	733.59937	55.68568	-123.38438	586.67029	65.75561	-156.93370	577.77301	113.32630	-91.00173	500.22330	115.31725	-129.52892	504.99899	126.40150	-240.92035	1044.88562	-414.36566	-234.14510	883.19110	-500.87714	-281.93359	890.85919	-509.51511	-232.99548	809.45819	-534.45117	-286.66248	814.64600	-545.51440	-268.70676	746.93433	-568.33661	-313.32199	715.32892	-505.09329	-79.34558	566.67401	-490.35788	-109.71303	540.27826	-552.57483	-39.81075	480.12683	-551.07422	-82.87763	477.92294	-560.39185	-261.74722	293.65863	89.71574	-244.87305	297.92065	-538.94238	
470	3.127	-150.90036	1007.86981	-209.22710	-168.40131	829.07910	-208.80803	-261.70071	1120.46887	-216.08296	-374.05383	949.72278	-219.21028	-221.66722	1051.96436	-20.31330	-224.79320	876.52142	41.28503	-261.22217	901.85156	71.46761	-247.84993	805.33551	71.48123	-281.04709	831.69818	99.99389	-319.26309	757.07013	128.13356	-355.88675	729.79669	55.87630	-108.57059	583.03619	66.20815	-142.16237	574.69476	114.29681	-77.82180	496.28897	115.92107	-116.05060	501.46698	127.23832	-232.49841	1043.73792	-414.62222	-223.01781	880.88782	-499.58041	-270.97113	887.65802	-508.70108	-220.31583	806.83160	-532.37476	-273.91983	811.39392	-544.06366	-254.90033	743.63855	-566.15558	-299.28180	711.86292	-503.11035	-65.51155	562.54419	-489.72583	-96.02934	536.82178	-552.06573	-27.75806	475.10428	-550.51184	-70.81848	474.12894	-560.11542	-254.17604	293.46848	90.12688	-237.58141	298.07120	-538.87085	
471	3.133	-143.24355	1007.72809	-209.05516	-160.71239	828.85571	-208.56598	-254.25992	1120.25769	-215.93974	-366.52032	949.53809	-219.05606	-213.54904	1051.15222	-19.89430	-213.56967	875.09784	40.22992	-249.92332	899.44427	71.30163	-234.86679	803.18433	70.14378	-268.07922	828.60504	99.64869	-305.20905	753.59912	127.59968	-341.83224	725.97333	55.43257	-93.91606	579.25482	66.74927	-127.79524	571.55603	114.21597	-64.65995	491.41843	116.70736	-102.87735	498.12109	127.62586	-223.85686	1042.73816	-414.51569	-211.86302	878.57855	-498.23468	-259.93152	884.52667	-507.83206	-207.56001	804.24774	-530.17780	-261.14157	807.77734	-542.42950	-241.16072	740.39069	-563.95288	-285.15860	708.43756	-500.82269	-51.76395	558.21930	-488.95151	-82.59469	533.52509	-551.67932	-15.67942	470.14963	-550.01361	-58.84315	470.24692	-559.86255	-246.77618	293.42557	90.23135	-230.16718	298.13425	-538.58429	
472	3.140	-135.73570	1007.61548	-208.85701	-152.89897	828.71423	-208.26317	-246.79533	1120.05542	-215.77397	-358.98157	949.36212	-218.92177	-205.49205	1050.39795	-19.57259	-201.40089	874.12958	39.92218	-236.99203	896.83203	71.59171	-221.75540	801.21753	68.75925	-254.97267	825.79211	98.96689	-291.07697	750.11365	127.06760	-327.98956	722.64856	55.48064	-79.37852	575.32361	67.31470	-113.50854	568.08661	115.04447	-51.68124	486.78754	117.45448	-89.53893	494.39682	128.53816	-215.30150	1041.50500	-414.74014	-200.68961	876.28027	-496.73477	-247.86870	880.91772	-506.33441	-194.84294	801.69916	-527.91370	-248.44382	804.20966	-540.32971	-227.32726	737.14459	-561.48633	-271.00903	705.17279	-498.40936	-38.22805	553.81592	-488.08670	-69.33277	530.19177	-552.01605	-3.80458	465.16562	-549.57898	-46.89124	466.44870	-559.64099	-239.38997	293.25397	90.52164	-222.75290	298.19278	-538.21143	
473	3.147	-128.30800	1007.68243	-208.61490	-145.08223	828.58240	-208.01793	-239.39732	1119.87720	-215.70840	-351.43033	949.08936	-218.82738	-197.46800	1049.66357	-19.21539	-190.02290	872.95331	38.62398	-225.66324	894.94604	71.27016	-209.54796	799.82404	66.45464	-241.65663	823.20953	98.19273	-275.90262	746.75861	125.73567	-314.23245	719.86475	55.40079	-65.08594	571.24377	67.85108	-99.47444	564.55817	114.84628	-38.82835	482.16840	118.08654	-76.45047	490.60703	129.21985	-206.76215	1040.08044	-414.99075	-189.48573	874.15558	-495.24146	-236.74763	877.83752	-505.30139	-182.13976	799.23267	-525.87488	-235.57790	800.81305	-538.65955	-213.50441	733.97192	-559.06635	-256.93390	702.03156	-495.89389	-24.74757	549.41962	-487.17603	-56.10584	526.78143	-551.53033	7.89906	460.21176	-549.22870	-35.05349	462.73596	-559.59241	-231.95256	293.33063	90.36781	-215.36946	298.29697	-537.95966	
474	3.153	-120.78587	1007.64594	-208.49258	-137.30547	828.51849	-207.78198	-231.96144	1119.76636	-215.72833	-343.89374	948.87305	-218.74251	-189.20819	1048.45715	-19.37217	-178.69682	871.92358	37.47545	-214.21176	893.02631	70.95468	-196.42714	798.10730	64.98872	-228.55418	820.80164	97.31387	-261.53848	743.65015	124.97394	-298.75388	716.13934	54.18907	-50.91690	567.02448	68.25026	-85.66388	560.71686	115.86292	-26.36433	476.77594	117.52451	-63.59181	486.52838	129.75566	-198.21338	1038.63403	-415.17133	-178.44044	872.09338	-493.67392	-225.63792	874.80811	-504.08173	-169.35109	797.02002	-523.55780	-222.64844	797.58118	-536.71613	-199.77182	730.97620	-556.54388	-242.71530	698.94519	-493.34488	-11.41473	544.83112	-486.39026	-43.02977	523.19751	-550.93011	19.55305	455.18802	-548.89575	-23.26195	458.99118	-559.52209	-224.44408	293.16501	90.84500	-207.94023	298.33139	-537.60486	
475	3.160	-113.29745	1007.74042	-208.29877	-129.50262	828.56116	-207.41493	-224.57483	1119.72693	-215.81024	-336.41495	948.66162	-218.68568	-181.16711	1047.86572	-19.10985	-167.44301	870.98785	36.38078	-202.93857	891.24609	70.50866	-183.38916	796.71350	63.68890	-215.44012	818.71289	96.62116	-247.20059	740.74756	123.91507	-284.33255	712.94324	53.64816	-36.88317	562.68665	68.45541	-71.81270	557.25226	116.29632	-13.90746	471.81598	117.71105	-51.02758	482.22754	130.00893	-189.46141	1037.15479	-415.30994	-167.38652	870.13196	-492.03015	-214.53926	871.79077	-502.74625	-156.60895	794.97955	-521.24945	-209.88950	794.51813	-534.67322	-185.84781	728.13605	-553.87671	-228.33549	696.05823	-490.66812	1.80032	540.12421	-485.68997	-30.20960	519.61340	-550.51050	31.03583	450.27777	-548.61932	-11.70038	455.43442	-559.58826	-217.04408	293.08090	91.09086	-200.62654	298.49335	-537.56860	
476	3.167	-105.84741	1007.83514	-208.00217	-121.58032	828.56219	-207.04564	-217.12778	1119.68262	-215.97484	-328.93054	948.39410	-218.64653	-173.14020	1047.24683	-18.85676	-156.15013	870.25922	35.24213	-191.58636	889.69873	70.07613	-170.30450	795.44519	62.30838	-202.36469	816.64874	95.79173	-232.68285	737.84143	123.12680	-269.85855	710.27374	52.98577	-22.95834	558.26697	68.58974	-58.02383	553.55011	116.33707	-1.61274	467.01254	118.15103	-38.37883	478.17072	130.42923	-180.60486	1035.59521	-415.39746	-156.25922	868.31519	-490.41913	-203.40921	868.84302	-501.34705	-143.87085	793.22577	-518.56628	-197.20551	791.73132	-532.30786	-171.91248	725.37476	-551.25024	-213.99608	693.33197	-487.86118	14.83068	535.37653	-484.91232	-17.50924	515.92773	-550.06012	42.28777	445.33801	-548.37854	-0.29562	451.77145	-559.71118	-209.30756	293.23706	91.85006	-193.18378	298.39505	-537.32983	
477	3.173	-98.36198	1008.00000	-207.87910	-113.71712	828.61945	-206.63425	-209.74052	1119.78308	-216.17075	-321.40897	948.11444	-218.65909	-165.00339	1046.64941	-18.73284	-144.89651	869.64240	34.12108	-180.37701	888.25922	69.53606	-157.26663	794.30768	61.05299	-189.26236	814.71387	94.87608	-218.23792	735.19324	121.98750	-255.51616	707.78607	52.41821	-9.04959	553.80811	68.51330	-44.38225	549.60822	116.13090	10.57050	462.30170	118.55669	-25.93163	474.03906	131.11183	-171.64499	1034.07959	-415.41177	-145.02750	866.43433	-488.75613	-192.17450	866.03741	-499.78494	-131.13991	791.17383	-516.70764	-184.31491	788.72711	-530.43573	-157.87329	722.94580	-548.50153	-199.59521	690.79858	-485.15228	27.68268	530.61639	-484.25742	-5.03975	512.15887	-549.63269	53.30584	440.43121	-548.18140	11.05850	448.20404	-559.77240	-201.82542	293.16907	91.93513	-185.53177	298.49664	-535.68744	
478	3.180	-90.85482	1008.18243	-207.70805	-105.79079	828.75653	-206.25452	-202.24602	1119.82251	-216.38560	-313.92642	947.86615	-218.68376	-156.91760	1046.11548	-18.62820	-133.34274	869.35114	32.27479	-169.09067	886.91852	68.91935	-144.22552	793.33063	59.51665	-176.26144	812.75879	93.89323	-203.63574	732.75116	120.98491	-240.48232	705.40173	51.87079	4.61168	549.33368	68.40641	-30.66528	546.08582	116.47413	22.67463	457.61798	118.99054	-13.36731	470.34589	131.68054	-162.50621	1032.55115	-415.42828	-133.68811	864.73541	-487.10623	-180.78796	863.27112	-498.03641	-118.33801	789.65186	-514.04211	-171.51509	786.26007	-527.95819	-143.65773	720.72235	-545.79401	-185.18681	688.48914	-482.45471	40.10795	525.73291	-483.49850	7.24562	508.46814	-549.23438	64.12678	435.74954	-548.13696	22.24748	444.74808	-559.94293	-194.28899	293.09128	92.17567	-178.31863	298.60382	-535.53607	
479	3.187	-83.34834	1008.41132	-207.38023	-97.95992	828.87506	-205.81000	-194.86647	1119.90747	-216.57225	-306.36371	947.51788	-218.74841	-148.72850	1045.64050	-18.49279	-122.04229	868.84705	30.89243	-157.86897	885.52423	68.47442	-131.22781	792.45306	58.23517	-163.31816	811.24756	92.76979	-188.87579	730.23657	119.63829	-225.98778	703.16644	50.77394	18.08716	544.81006	68.17132	-17.27832	542.36383	115.96157	34.65081	452.98013	119.35486	-1.08562	466.30084	131.92053	-153.25351	1031.09900	-415.45239	-122.25341	863.36890	-485.42084	-169.20401	860.79657	-496.35114	-105.41522	788.28265	-511.73587	-158.26332	782.93958	-526.09033	-129.23729	718.69226	-542.86682	-170.65959	686.64307	-480.06833	52.27974	520.92096	-482.70905	19.35296	504.86990	-548.92621	74.85281	431.55896	-548.20923	33.31070	441.19891	-560.18518	-186.86859	293.34467	92.23618	-170.94002	298.76215	-535.35120	
480	3.193	-75.83518	1008.65033	-207.08223	-90.12480	829.04120	-205.13640	-187.44049	1119.93811	-216.74174	-298.81400	947.24780	-218.85178	-140.71284	1045.22327	-18.34249	-110.83175	868.54858	30.01044	-145.90355	884.30774	66.46485	-118.16537	791.68707	56.85269	-150.20558	809.86542	91.73537	-174.20464	728.06427	118.01899	-211.24875	701.09033	50.34664	31.49676	540.21918	67.78841	-3.65480	538.68994	116.07233	46.66803	448.51315	119.69836	11.41054	463.15051	132.63269	-143.94765	1029.80786	-415.33453	-110.88499	862.54895	-484.07385	-156.89401	857.50830	-493.88449	-92.36623	786.84100	-509.25424	-144.99246	780.65808	-523.89178	-114.97231	717.03375	-540.00739	-156.32063	684.83154	-477.34088	64.24895	516.09821	-481.95969	31.34760	501.26572	-548.48376	85.47549	427.56528	-548.30176	44.13963	437.60031	-560.39172	-179.35023	293.43021	92.24784	-163.64247	298.74637	-535.08795	
